<svg width="32" height="32" viewBox="0 0 32 32" fill="none" xmlns="http://www.w3.org/2000/svg">
<path d="M9.45458 16C9.45458 15.1967 8.80333 14.5454 8.00003 14.5454H2.18184C1.37854 14.5454 0.727295 15.1967 0.727295 16C0.727295 16.8033 1.37854 17.4545 2.18184 17.4545H8.00003C8.80333 17.4545 9.45458 16.8033 9.45458 16Z" fill='var(--green11)'/>
<path d="M29.8182 14.5454H26.9091C26.1058 14.5454 25.4546 15.1967 25.4546 16C25.4546 16.8033 26.1058 17.4545 26.9091 17.4545H29.8182C30.6215 17.4545 31.2728 16.8033 31.2728 16C31.2728 15.1967 30.6215 14.5454 29.8182 14.5454Z" fill='var(--green11)'/>
<path d="M16.7273 8.72727C17.5306 8.72727 18.1819 8.07603 18.1819 7.27273V1.45455C18.1819 0.651248 17.5306 0 16.7273 0C15.924 0 15.2728 0.651248 15.2728 1.45455V7.27273C15.2728 8.07603 15.924 8.72727 16.7273 8.72727Z" fill='var(--green11)'/>
<path d="M16.7274 23.2727C15.9241 23.2727 15.2728 23.924 15.2728 24.7273V30.5454C15.2728 31.3487 15.9241 32 16.7274 32C17.5307 32 18.1819 31.3487 18.1819 30.5454V24.7273C18.1819 23.924 17.5307 23.2727 16.7274 23.2727Z" fill='var(--green11)'/>
<path d="M7.47055 4.68626C6.90269 4.1182 5.98167 4.1183 5.41352 4.68626C4.84548 5.25431 4.84548 6.17523 5.41352 6.74328L9.52766 10.8575C9.81169 11.1415 10.184 11.2836 10.5561 11.2836C10.9283 11.2836 11.3007 11.1415 11.5846 10.8576C12.1526 10.2896 12.1526 9.36865 11.5846 8.8006L7.47055 4.68626Z" fill='var(--green11)'/>
<path d="M23.9269 21.1426C23.359 20.5747 22.438 20.5747 21.8699 21.1426C21.3019 21.7107 21.302 22.6316 21.8699 23.1997L25.9841 27.3137C26.2682 27.5977 26.6404 27.7397 27.0127 27.7397C27.385 27.7397 27.7572 27.5977 28.0412 27.3137C28.6092 26.7457 28.6092 25.8247 28.0412 25.2567L23.9269 21.1426Z" fill='var(--green11)'/>
<path d="M9.52767 21.1427L5.41365 25.2568C4.8456 25.8248 4.8456 26.7457 5.41365 27.3138C5.69767 27.5978 6.06993 27.7398 6.4422 27.7398C6.81447 27.7398 7.18673 27.5978 7.47066 27.3138L11.5847 23.1997C12.1527 22.6317 12.1527 21.7108 11.5847 21.1427C11.0166 20.5747 10.0956 20.5747 9.52767 21.1427Z" fill='var(--green11)'/>
</svg>
